# xmcd CD database file generated by freedbAccess_ocx
#
# Track frame offsets:
#       150
#       17197
#       33347
#       53317
#       66785
#       86710
#       103407
#       120690
#       137112
#       156330
#       174527
#       190915
#       208805
#
# Disc length: 3038 seconds
#
# Revision: 0
# Processed by: cddbd v1.4PL0 Copyright (c) Steve Scherf et al.
# Submitted via: CDnGo 2.00
#
DISCID=b80bdc0d
DTITLE=SOS - Es wird viel passieren
DYEAR=1996
DGENRE=Rock
TTITLE0=Lass mich los
TTITLE1=Es wird viel passieren
TTITLE2=Die Nacht
TTITLE3=Sexappeal
TTITLE4=Schluss aus und vorbei
TTITLE5=Vaterland
TTITLE6=Du bist der Wahnsinn
TTITLE7=Immer weiter
TTITLE8=Alles Gute
TTITLE9=Zu spaet
TTITLE10=Bring mich fort
TTITLE11=Deine Augen
TTITLE12=Ist schon ok
EXTD=
EXTT0=
EXTT1=
EXTT2=
EXTT3=
EXTT4=
EXTT5=
EXTT6=
EXTT7=
EXTT8=
EXTT9=
EXTT10=
EXTT11=
EXTT12=
PLAYORDER=
